<mxfile host="Electron" agent="Mozilla/5.0 (Windows NT 10.0; Win64; x64) AppleWebKit/537.36 (KHTML, like Gecko) draw.io/26.0.4 Chrome/128.0.6613.186 Electron/32.2.5 Safari/537.36" version="26.0.4">
  <diagram name="第 1 页" id="45NYeTc6yCiJNNnckm9Q">
    <mxGraphModel dx="688" dy="540" grid="1" gridSize="10" guides="1" tooltips="1" connect="1" arrows="1" fold="1" page="1" pageScale="1" pageWidth="827" pageHeight="1169" math="0" shadow="0">
      <root>
        <mxCell id="0" />
        <mxCell id="1" parent="0" />
        <mxCell id="6mjmpb91qRoCr6TVHJZk-9" style="edgeStyle=orthogonalEdgeStyle;rounded=0;orthogonalLoop=1;jettySize=auto;html=1;exitX=1;exitY=0.5;exitDx=0;exitDy=0;" parent="1" source="6mjmpb91qRoCr6TVHJZk-1" target="6mjmpb91qRoCr6TVHJZk-2" edge="1">
          <mxGeometry relative="1" as="geometry" />
        </mxCell>
        <mxCell id="6mjmpb91qRoCr6TVHJZk-1" value="" style="shape=orEllipse;perimeter=ellipsePerimeter;whiteSpace=wrap;html=1;backgroundOutline=1;" parent="1" vertex="1">
          <mxGeometry x="150" y="170" width="40" height="40" as="geometry" />
        </mxCell>
        <mxCell id="6mjmpb91qRoCr6TVHJZk-2" value="" style="verticalLabelPosition=bottom;verticalAlign=top;html=1;shape=mxgraph.basic.rect;fillColor2=none;strokeWidth=1;size=20;indent=5;" parent="1" vertex="1">
          <mxGeometry x="240" y="160" width="90" height="60" as="geometry" />
        </mxCell>
        <mxCell id="6mjmpb91qRoCr6TVHJZk-3" value="" style="verticalLabelPosition=bottom;verticalAlign=top;html=1;shape=mxgraph.basic.rect;fillColor2=none;strokeWidth=1;size=20;indent=5;" parent="1" vertex="1">
          <mxGeometry x="390" y="160" width="80" height="60" as="geometry" />
        </mxCell>
        <mxCell id="6mjmpb91qRoCr6TVHJZk-4" value="" style="verticalLabelPosition=bottom;verticalAlign=top;html=1;shape=mxgraph.basic.rect;fillColor2=none;strokeWidth=1;size=20;indent=5;" parent="1" vertex="1">
          <mxGeometry x="390" y="240" width="70" height="40" as="geometry" />
        </mxCell>
        <mxCell id="6mjmpb91qRoCr6TVHJZk-10" value="" style="endArrow=classic;html=1;rounded=0;exitX=1.013;exitY=0.522;exitDx=0;exitDy=0;exitPerimeter=0;entryX=-0.003;entryY=0.528;entryDx=0;entryDy=0;entryPerimeter=0;" parent="1" source="6mjmpb91qRoCr6TVHJZk-2" target="6mjmpb91qRoCr6TVHJZk-3" edge="1">
          <mxGeometry width="50" height="50" relative="1" as="geometry">
            <mxPoint x="330" y="300" as="sourcePoint" />
            <mxPoint x="380" y="250" as="targetPoint" />
          </mxGeometry>
        </mxCell>
        <mxCell id="cOHHbBw8gno7bnMm4LLn-1" value="" style="endArrow=none;html=1;rounded=0;exitX=0.808;exitY=-0.12;exitDx=0;exitDy=0;exitPerimeter=0;" edge="1" parent="1">
          <mxGeometry width="50" height="50" relative="1" as="geometry">
            <mxPoint x="310.4" y="280.4" as="sourcePoint" />
            <mxPoint x="310" y="280" as="targetPoint" />
            <Array as="points">
              <mxPoint x="310" y="318" />
              <mxPoint x="260" y="318" />
              <mxPoint x="240" y="300" />
              <mxPoint x="260" y="280" />
            </Array>
          </mxGeometry>
        </mxCell>
        <mxCell id="cOHHbBw8gno7bnMm4LLn-3" value="" style="endArrow=classic;html=1;rounded=0;" edge="1" parent="1">
          <mxGeometry width="50" height="50" relative="1" as="geometry">
            <mxPoint x="470" y="190" as="sourcePoint" />
            <mxPoint x="540" y="190" as="targetPoint" />
          </mxGeometry>
        </mxCell>
        <mxCell id="cOHHbBw8gno7bnMm4LLn-4" value="" style="endArrow=classic;html=1;rounded=0;" edge="1" parent="1">
          <mxGeometry width="50" height="50" relative="1" as="geometry">
            <mxPoint x="420" y="240" as="sourcePoint" />
            <mxPoint x="420" y="222" as="targetPoint" />
          </mxGeometry>
        </mxCell>
        <mxCell id="cOHHbBw8gno7bnMm4LLn-5" value="" style="endArrow=classic;html=1;rounded=0;" edge="1" parent="1">
          <mxGeometry width="50" height="50" relative="1" as="geometry">
            <mxPoint x="490" y="190" as="sourcePoint" />
            <mxPoint x="310" y="298.2222222222222" as="targetPoint" />
            <Array as="points">
              <mxPoint x="490" y="298" />
            </Array>
          </mxGeometry>
        </mxCell>
        <mxCell id="cOHHbBw8gno7bnMm4LLn-8" value="" style="endArrow=classic;html=1;rounded=0;entryX=0.5;entryY=1;entryDx=0;entryDy=0;" edge="1" parent="1" target="6mjmpb91qRoCr6TVHJZk-1">
          <mxGeometry width="50" height="50" relative="1" as="geometry">
            <mxPoint x="240" y="300" as="sourcePoint" />
            <mxPoint x="290" y="250" as="targetPoint" />
            <Array as="points">
              <mxPoint x="170" y="300" />
            </Array>
          </mxGeometry>
        </mxCell>
        <mxCell id="cOHHbBw8gno7bnMm4LLn-9" value="" style="endArrow=none;html=1;rounded=0;" edge="1" parent="1">
          <mxGeometry width="50" height="50" relative="1" as="geometry">
            <mxPoint x="100" y="190" as="sourcePoint" />
            <mxPoint x="120" y="170" as="targetPoint" />
          </mxGeometry>
        </mxCell>
        <mxCell id="cOHHbBw8gno7bnMm4LLn-10" value="" style="endArrow=none;html=1;rounded=0;" edge="1" parent="1">
          <mxGeometry width="50" height="50" relative="1" as="geometry">
            <mxPoint x="60" y="190" as="sourcePoint" />
            <mxPoint x="100" y="190" as="targetPoint" />
          </mxGeometry>
        </mxCell>
        <mxCell id="cOHHbBw8gno7bnMm4LLn-12" value="X（）" style="edgeLabel;html=1;align=center;verticalAlign=middle;resizable=0;points=[];" vertex="1" connectable="0" parent="cOHHbBw8gno7bnMm4LLn-10">
          <mxGeometry x="-0.2536" y="1" relative="1" as="geometry">
            <mxPoint as="offset" />
          </mxGeometry>
        </mxCell>
        <mxCell id="cOHHbBw8gno7bnMm4LLn-11" value="" style="endArrow=classic;html=1;rounded=0;entryX=0;entryY=0.5;entryDx=0;entryDy=0;" edge="1" parent="1" target="6mjmpb91qRoCr6TVHJZk-1">
          <mxGeometry width="50" height="50" relative="1" as="geometry">
            <mxPoint x="120" y="190" as="sourcePoint" />
            <mxPoint x="380" y="150" as="targetPoint" />
          </mxGeometry>
        </mxCell>
      </root>
    </mxGraphModel>
  </diagram>
</mxfile>
